# xmcd
#
# Track frame offsets: 
#        150
#        67533
#        84168
#        85793
#        119704
#        142028
#        200807
#        245282
#        247441
#        271432
#
# Disc length: 3803 seconds
#
# Revision: 0
# Processed by: cddbd v1.5.1PL2 Copyright (c) Steve Scherf et al.
# Submitted via: ExactAudioCopy v0.95b4
#
DISCID=900ed90a
DTITLE=EDGAR - 1997-10-08 - The Blue Terrapin - Elizabethtown PA - Dis
DTITLE=c 1
DYEAR=1997
DGENRE=Fusion
TTITLE0=Improvisation
TTITLE1=Passengers
TTITLE2=Edgar Talks
TTITLE3=Ronald's Tune
TTITLE4=Drum Solo
TTITLE5=Improvisation
TTITLE6=Hunger (tape flip)
TTITLE7=Edgar Talks
TTITLE8=Jewels
TTITLE9=Seasonal Changes - Drum Solo
EXTD=
EXTT0=
EXTT1=
EXTT2=
EXTT3=
EXTT4=
EXTT5=
EXTT6=
EXTT7=
EXTT8=
EXTT9=
PLAYORDER=
